<svg xmlns="http://www.w3.org/2000/svg" width="100" height="100" viewBox="0 0 100 100">
  <!-- Leaf shape (asymmetrical for realism) -->
  <path fill="#4CAF50" d="M50 5C30 5 10 25 15 50Q20 70 35 85Q50 95 65 85Q80 70 85 50Q90 25 70 5Q60 2 50 5Z" />

  <!-- Veins (primary and secondary) -->
  <path d="M50 10L50 80" stroke="#2E7D32" stroke-width="1.5" fill="none" stroke-linecap="round"/>
  <path d="M50 20Q40 25 35 30" stroke="#2E7D32" stroke-width="1" fill="none" stroke-linecap="round"/>
  <path d="M50 20Q60 25 65 30" stroke="#2E7D32" stroke-width="1" fill="none" stroke-linecap="round"/>
  <path d="M50 40Q40 45 35 55" stroke="#2E7D32" stroke-width="1" fill="none" stroke-linecap="round"/>
  <path d="M50 40Q60 45 65 55" stroke="#2E7D32" stroke-width="1" fill="none" stroke-linecap="round"/>
  <path d="M50 60Q40 65 35 75" stroke="#2E7D32" stroke-width="1" fill="none" stroke-linecap="round"/>
  <path d="M50 60Q60 65 65 75" stroke="#2E7D32" stroke-width="1" fill="none" stroke-linecap="round"/>

  <!-- Highlight for depth (optional) -->
  <path d="M50 10Q60 15 70 10Q60 20 50 25Z" fill="#81C784" fill-opacity="0.3"/>
</svg>
